{"asset":{"version":"2.0","generator":"Blockbench 4.11.1 glTF exporter"},"scenes":[{"nodes":[20],"name":"blockbench_export"}],"scene":0,"nodes":[{"translation":[0,0.0010000000000000143,0],"name":"TrueTorso"},{"translation":[0,-0.08,0],"name":"LHand"},{"translation":[0,-0.08,0],"name":"LLowerArm","children":[1]},{"translation":[1.7763568394002505e-17,-0.018999999999999986,0],"name":"LArm","children":[2]},{"translation":[-0.09000000000000002,0.18,0],"name":"LShoulder","children":[3]},{"translation":[0,-0.08,0],"name":"Rhand"},{"translation":[0,-0.08,0],"name":"RLowerArm","children":[5]},{"translation":[-0.0019999999999999753,-0.018999999999999986,0],"name":"RArm","children":[6]},{"translation":[0.08999999999999998,0.18,0],"name":"RShoulder","children":[7]},{"translation":[0.00068429001427881,0.003278640450004211,0.01621399444808235],"name":"Tail"},{"translation":[0.0005572809000084167,0.026957427527495668,-0.010000000000000016],"name":"TrueHead"},{"translation":[-0.0005572809000084167,-0.0019574275274955965,0.010000000000000016],"name":"Neck","children":[10]},{"translation":[0.0005572809000084167,0.2179574275274956,-0.010000000000000016],"name":"Head","children":[11]},{"translation":[0,-0.09,0],"name":"LFoot"},{"translation":[0,-0.08,0],"name":"LLowerLeg","children":[13]},{"translation":[-0.02931570998572119,0.006278640450004218,-0.00034885805996826046],"name":"LLeg","children":[14]},{"translation":[0,-0.09,0],"name":"RFoot"},{"translation":[0,-0.08,0],"name":"RLowerLeg","children":[16]},{"translation":[0.02931570998572119,0.006278640450004218,-0.00034885805996826046],"name":"RLeg","children":[17]},{"name":"Torso","children":[0,4,8,9,12,15,18]},{"translation":[0,0.22399999999999998,0],"name":"Torso","mesh":0,"children":[19],"skin":0}],"bufferViews":[{"buffer":0,"byteOffset":0,"byteLength":34956,"target":34962,"byteStride":12},{"buffer":0,"byteOffset":34956,"byteLength":34956,"target":34962,"byteStride":12},{"buffer":0,"byteOffset":69912,"byteLength":23304,"target":34962,"byteStride":8},{"buffer":0,"byteOffset":93216,"byteLength":23304,"target":34962,"byteStride":8},{"buffer":0,"byteOffset":116520,"byteLength":46608,"target":34962,"byteStride":16},{"buffer":0,"byteOffset":163128,"byteLength":7736,"target":34963},{"buffer":0,"byteOffset":170864,"byteLength":1280}],"buffers":[{"byteLength":172144,"uri":"data:application/octet-stream;base64,"}],"accessors":[{"bufferView":0,"componentType":5126,"count":2913,"max":[0.11951485276222229,0.41695743799209595,0.10700000077486038],"min":[-0.1245148554444313,-0.2235986292362213,-0.09486036002635956],"type":"VEC3"},{"bufferView":1,"componentType":5126,"count":2913,"max":[0.9999920129776001,1,1],"min":[-0.9999920129776001,-1,-1],"type":"VEC3"},{"bufferView":2,"componentType":5126,"count":2913,"max":[0.875,0.8380758762359619],"min":[0,0],"type":"VEC2"},{"bufferView":3,"componentType":5123,"count":2913,"max":[0,19,0,0],"min":[0,1,0,0],"type":"VEC4"},{"bufferView":4,"componentType":5126,"count":2913,"max":[0,1,0,0],"min":[0,1,0,0],"type":"VEC4"},{"bufferView":5,"componentType":5123,"count":3867,"max":[2912],"min":[0],"type":"SCALAR"},{"bufferView":6,"componentType":5126,"count":20,"max":[1,0,0,0,0,1,0,0,0,0,1,0,0.09000000357627869,0.16372135281562805,0.009999999776482582,1],"min":[1,0,0,0,0,1,0,0,0,0,1,0,-0.09000000357627869,-0.24295742809772491,-0.016213994473218918,1],"type":"MAT4"}],"materials":[{"pbrMetallicRoughness":{"metallicFactor":0,"roughnessFactor":1,"baseColorTexture":{"index":0}},"alphaMode":"MASK","alphaCutoff":0.05,"doubleSided":true}],"textures":[{"sampler":0,"source":0,"name":"garryChan.png"}],"samplers":[{"magFilter":9728,"minFilter":9728,"wrapS":33071,"wrapT":33071}],"images":[{"mimeType":"image/png","uri":"data:image/png;base64,"}],"meshes":[{"primitives":[{"mode":4,"attributes":{"POSITION":0,"NORMAL":1,"TEXCOORD_0":2,"JOINTS_0":3,"WEIGHTS_0":4},"indices":5,"material":0}]}],"skins":[{"inverseBindMatrices":6,"joints":[19,0,4,3,2,1,8,7,6,5,9,12,11,10,15,14,13,18,17,16],"skeleton":19}]}